# xmcd
#
# Track frame offsets: 
#        150
#        10435
#        21280
#        31887
#        43825
#        57822
#        67545
#        78602
#        88290
#        99697
#        112947
#        123395
#        135682
#        147682
#        160457
#        170735
#        181602
#        191270
#        201465
#        212917
#        224285
#        235772
#        247360
#        258370
#        268375
#        280625
#        291420
#        302517
#        312650
#        323972
#        335197
#
# Disc length: 4621 seconds
#
# Revision: 0
# Processed by: cddbd v1.5.2PL0 Copyright (c) Steve Scherf et al.
# Submitted via: ExactAudioCopyFreeDBPlugin 1.0
#
DISCID=e9120b1f
DTITLE=Orlons - South Street
DYEAR=1900
DGENRE=R&B
TTITLE0=Ride
TTITLE1=South Street
TTITLE2=Chains
TTITLE3=Stubborn Kind of Fellow
TTITLE4=Release Me
TTITLE5=Hes a Rebel
TTITLE6=Guitar Man
TTITLE7=Pop Pop Pop-Pie
TTITLE8=Heartbreak Hotel
TTITLE9=Ill Bring It on Home to You
TTITLE10=Forever
TTITLE11=Hes Sure the Boy I Love
TTITLE12=Bad Boy
TTITLE13=Somethings Got a Hold on Me
TTITLE14=We Got Love
TTITLE15=Muskrat Ramble
TTITLE16=Walk Right In
TTITLE17=Mister Sandman
TTITLE18=Heart Darling Angel
TTITLE19=Ill Be True
TTITLE20=Little Star
TTITLE21=Sea Cruise
TTITLE22=Gather Round
TTITLE23=Cement Mixer
TTITLE24=Darling
TTITLE25=Mr Twenty-One
TTITLE26=Please Let It Be Me
TTITLE27=Hes Braggin
TTITLE28=Pokey Lou
TTITLE29=Surfin
TTITLE30=Mr Surfer
EXTD=
EXTT0=
EXTT1=
EXTT2=
EXTT3=
EXTT4=
EXTT5=
EXTT6=
EXTT7=
EXTT8=
EXTT9=
EXTT10=
EXTT11=
EXTT12=
EXTT13=
EXTT14=
EXTT15=
EXTT16=
EXTT17=
EXTT18=
EXTT19=
EXTT20=
EXTT21=
EXTT22=
EXTT23=
EXTT24=
EXTT25=
EXTT26=
EXTT27=
EXTT28=
EXTT29=
EXTT30=
PLAYORDER=
